<svg width="14" height="14" viewBox="0 0 14 14" fill="none" xmlns="http://www.w3.org/2000/svg">
<path fill-rule="evenodd" clip-rule="evenodd" d="M1.78062 13.8261C1.7847 13.827 1.78879 13.8274 1.79287 13.8274C1.78976 13.8274 1.78617 13.8269 1.78212 13.8259L1.78062 13.8261ZM1.62528 13.7371C1.61229 13.7293 1.60059 13.7227 1.5902 13.7175C1.60059 13.7227 1.61229 13.7293 1.62528 13.7371ZM1.62528 13.7371C1.63827 13.745 1.65256 13.7541 1.66815 13.7646C1.65256 13.7541 1.63827 13.745 1.62528 13.7371ZM14 2.57399C14 2.72048 13.9428 2.84865 13.8285 2.95852C13.7142 3.06839 13.5791 3.12332 13.4232 3.12332H13.1114V12.9013C13.1114 13.2048 13.0022 13.4638 12.784 13.6783C12.5657 13.8928 12.3059 14 12.0045 14H2.15145C1.85004 14 1.5902 13.8928 1.37194 13.6783C1.15367 13.4638 1.04454 13.2048 1.04454 12.9013V3.12332H0.561247C0.405344 3.12332 0.272829 3.06839 0.163697 2.95852C0.0545652 2.84865 0 2.71786 0 2.56614C0 2.41442 0.0545652 2.28363 0.163697 2.17377C0.272829 2.0639 0.405344 2.00897 0.561247 2.00897H3.44543V1.09865C3.44543 0.795215 3.55197 0.536249 3.76503 0.321749C3.9781 0.107249 4.24053 0 4.55234 0H9.44766C9.74907 0 10.0089 0.107249 10.2272 0.321749C10.4454 0.536249 10.5546 0.795215 10.5546 1.09865V2.00897H13.4232C13.5895 2.00897 13.7272 2.0639 13.8363 2.17377C13.9454 2.28363 14 2.41704 14 2.57399ZM4.53675 1.11435V2.00897H9.44766V1.11435H4.53675ZM12.0045 12.9013V3.12332H2.15145V12.9013H12.0045ZM7.37416 5.17937C7.48849 5.28401 7.54566 5.4148 7.54566 5.57175V10.8139C7.54566 10.9709 7.49109 11.1043 7.38196 11.2141C7.27283 11.324 7.14291 11.3789 6.9922 11.3789C6.8415 11.3789 6.71158 11.324 6.60245 11.2141C6.49332 11.1043 6.43875 10.9709 6.43875 10.8139V5.57175C6.43875 5.4148 6.49332 5.28139 6.60245 5.17152C6.71158 5.06166 6.8415 5.00673 6.9922 5.00673C7.14291 5.00673 7.27023 5.06427 7.37416 5.17937ZM4.34967 5.17937C4.46399 5.28401 4.52116 5.4148 4.52116 5.57175V10.8139C4.52116 10.9709 4.46659 11.1043 4.35746 11.2141C4.24833 11.324 4.11581 11.3789 3.95991 11.3789C3.80401 11.3789 3.67149 11.324 3.56236 11.2141C3.45323 11.1043 3.39866 10.9709 3.39866 10.8139V5.57175C3.39866 5.4148 3.45323 5.28139 3.56236 5.17152C3.67149 5.06166 3.80401 5.00673 3.95991 5.00673C4.11581 5.00673 4.24573 5.06427 4.34967 5.17937ZM10.3831 5.17937C10.4974 5.28401 10.5546 5.4148 10.5546 5.57175V10.8139C10.5546 10.9709 10.5 11.1043 10.3909 11.2141C10.2817 11.324 10.1492 11.3789 9.99332 11.3789C9.83742 11.3789 9.7049 11.324 9.59577 11.2141C9.48664 11.1043 9.43207 10.9709 9.43207 10.8139V5.57175C9.43207 5.4148 9.48664 5.28139 9.59577 5.17152C9.7049 5.06166 9.83742 5.00673 9.99332 5.00673C10.1492 5.00673 10.2791 5.06427 10.3831 5.17937Z" fill="#78909C"/>
</svg>
