<svg width="20" height="20" viewBox="0 0 20 20" fill="none" xmlns="http://www.w3.org/2000/svg">
<path fill-rule="evenodd" clip-rule="evenodd" d="M19.7852 5.23438C19.8372 5.3125 19.8698 5.40365 19.8828 5.50781C19.8958 5.61198 19.8893 5.70963 19.8633 5.80078L16.875 14.5898C16.8359 14.707 16.7611 14.8047 16.6504 14.8828C16.5397 14.9609 16.4193 15 16.2891 15H7.85156C7.72135 15 7.60091 14.9577 7.49023 14.873C7.37956 14.7884 7.30469 14.681 7.26562 14.5508L3.80859 1.85547C3.71745 1.54297 3.61979 1.36068 3.51562 1.30859C3.41146 1.25651 3.33333 1.23047 3.28125 1.23047H0.605469C0.436197 1.23047 0.292969 1.17188 0.175781 1.05469C0.0585932 0.937499 0 0.794272 0 0.625C0 0.442707 0.0585932 0.292969 0.175781 0.175781C0.292969 0.0585932 0.436197 0 0.605469 0H3.28125C3.47656 0 3.76302 0.0813794 4.14062 0.244141C4.51823 0.406902 4.80469 0.82682 5 1.50391L6.01562 4.96094H19.2773C19.3685 4.96094 19.4596 4.98698 19.5508 5.03906C19.6419 5.09115 19.7201 5.15625 19.7852 5.23438ZM15.8594 13.75L18.3789 6.21094H6.34766L8.33984 13.75H15.8594ZM14.6289 16.25C15.0586 16.25 15.4264 16.403 15.7324 16.709C16.0384 17.015 16.1914 17.3828 16.1914 17.8125C16.1914 18.2422 16.0384 18.61 15.7324 18.916C15.4264 19.222 15.0586 19.375 14.6289 19.375C14.1992 19.375 13.8314 19.222 13.5254 18.916C13.2194 18.61 13.0664 18.2422 13.0664 17.8125C13.0664 17.3828 13.2194 17.015 13.5254 16.709C13.8314 16.403 14.1992 16.25 14.6289 16.25ZM9.00391 16.25C9.4336 16.25 9.80143 16.403 10.1074 16.709C10.4134 17.015 10.5664 17.3828 10.5664 17.8125C10.5664 18.2422 10.4134 18.61 10.1074 18.916C9.80143 19.222 9.4336 19.375 9.00391 19.375C8.57422 19.375 8.20638 19.222 7.90039 18.916C7.5944 18.61 7.44141 18.2422 7.44141 17.8125C7.44141 17.3828 7.5944 17.015 7.90039 16.709C8.20638 16.403 8.57422 16.25 9.00391 16.25Z" fill="#78909C"/>
</svg>
